<svg width="69" height="64" viewBox="0 0 69 64" fill="none" xmlns="http://www.w3.org/2000/svg">
<path d="M52.2769 22.0567C57.2171 22.0567 61.2219 18.0518 61.2219 13.1116C61.2219 8.17135 57.2171 4.1665 52.2769 4.1665C47.3366 4.1665 43.3318 8.17135 43.3318 13.1116C43.3318 18.0518 47.3366 22.0567 52.2769 22.0567Z" fill="#57266E"/>
<path d="M18.287 63.4429C20.5255 63.4429 22.3402 61.6282 22.3402 59.3897C22.3402 57.1511 20.5255 55.3364 18.287 55.3364C16.0485 55.3364 14.2338 57.1511 14.2338 59.3897C14.2338 61.6282 16.0485 63.4429 18.287 63.4429Z" fill="#57266E"/>
<path d="M20.9231 28.8428C9.64923 28.8428 0.51001 37.982 0.51001 49.2559H41.3362C41.3362 37.982 32.197 28.8428 20.9231 28.8428Z" fill="#57266E"/>
<path d="M68.49 44.3496C68.49 35.3954 61.2312 28.1367 52.277 28.1367C48.0643 28.1367 44.2291 29.7454 41.3473 32.38C44.2277 35.8533 46.1447 39.9531 46.9636 44.3496H68.49Z" fill="#57266E"/>
<path d="M20.9233 22.7633C27.1434 22.7633 32.1858 17.7209 32.1858 11.5008C32.1858 5.28068 27.1434 0.238281 20.9233 0.238281C14.7032 0.238281 9.66077 5.28068 9.66077 11.5008C9.66077 17.7209 14.7032 22.7633 20.9233 22.7633Z" fill="#57266E"/>
<path d="M50.7129 63.4429C52.9514 63.4429 54.7661 61.6282 54.7661 59.3897C54.7661 57.1511 52.9514 55.3364 50.7129 55.3364C48.4744 55.3364 46.6597 57.1511 46.6597 59.3897C46.6597 61.6282 48.4744 63.4429 50.7129 63.4429Z" fill="#57266E"/>
<path d="M34.5 63.4429C36.7385 63.4429 38.5532 61.6282 38.5532 59.3897C38.5532 57.1511 36.7385 55.3364 34.5 55.3364C32.2615 55.3364 30.4468 57.1511 30.4468 59.3897C30.4468 61.6282 32.2615 63.4429 34.5 63.4429Z" fill="#57266E"/>
</svg>
