<svg width="83" height="83" viewBox="0 0 83 83" fill="none" xmlns="http://www.w3.org/2000/svg">
<path d="M8.71185 5.81237H52.4296C53.9378 5.81237 55.1619 4.59101 55.1619 3.08001C55.1619 1.56902 53.9378 0.347656 52.4296 0.347656H8.71185C7.20359 0.347656 5.97949 1.56902 5.97949 3.08001C5.97949 4.59101 7.20359 5.81237 8.71185 5.81237Z" fill="#303D94"/>
<path d="M63.3589 38.6004C62.4299 38.6004 61.5282 38.6824 60.6265 38.819V19.4739C60.6265 14.9655 56.9379 11.2769 52.4295 11.2769H8.71172C4.20333 11.2769 0.514648 14.9655 0.514648 19.4739V74.1211C0.514648 78.6295 4.20333 82.3182 8.71172 82.3182H52.4295C56.0908 82.3182 59.1511 79.8864 60.2167 76.5802C61.2277 76.7442 62.2933 76.8535 63.3589 76.8535C73.9058 76.8535 82.4854 68.2739 82.4854 57.7269C82.4854 47.18 73.9058 38.6004 63.3589 38.6004ZM16.9088 65.924H14.1764C12.6736 65.924 11.4441 64.6945 11.4441 63.1917C11.4441 61.6889 12.6736 60.4593 14.1764 60.4593H16.9088C18.4116 60.4593 19.6412 61.6889 19.6412 63.1917C19.6412 64.6945 18.4116 65.924 16.9088 65.924ZM16.9088 49.5299H14.1764C12.6736 49.5299 11.4441 48.3003 11.4441 46.7975C11.4441 45.2947 12.6736 44.0652 14.1764 44.0652H16.9088C18.4116 44.0652 19.6412 45.2947 19.6412 46.7975C19.6412 48.3003 18.4116 49.5299 16.9088 49.5299ZM16.9088 33.1357H14.1764C12.6736 33.1357 11.4441 31.9062 11.4441 30.4034C11.4441 28.9006 12.6736 27.671 14.1764 27.671H16.9088C18.4116 27.671 19.6412 28.9006 19.6412 30.4034C19.6412 31.9062 18.4116 33.1357 16.9088 33.1357ZM38.7677 65.924H27.8382C26.3354 65.924 25.1059 64.6945 25.1059 63.1917C25.1059 61.6889 26.3354 60.4593 27.8382 60.4593H38.7677C40.2705 60.4593 41.5 61.6889 41.5 63.1917C41.5 64.6945 40.2705 65.924 38.7677 65.924ZM38.7677 49.5299H27.8382C26.3354 49.5299 25.1059 48.3003 25.1059 46.7975C25.1059 45.2947 26.3354 44.0652 27.8382 44.0652H38.7677C40.2705 44.0652 41.5 45.2947 41.5 46.7975C41.5 48.3003 40.2705 49.5299 38.7677 49.5299ZM46.9647 33.1357H27.8382C26.3354 33.1357 25.1059 31.9062 25.1059 30.4034C25.1059 28.9006 26.3354 27.671 27.8382 27.671H46.9647C48.4675 27.671 49.6971 28.9006 49.6971 30.4034C49.6971 31.9062 48.4675 33.1357 46.9647 33.1357ZM63.3589 71.3887C55.8176 71.3887 49.6971 65.2683 49.6971 57.7269C49.6971 50.1856 55.8176 44.0652 63.3589 44.0652C70.9002 44.0652 77.0207 50.1856 77.0207 57.7269C77.0207 65.2683 70.9002 71.3887 63.3589 71.3887Z" fill="#303D94"/>
<path d="M68.8235 54.9949H66.0912V49.5302C66.0912 48.0192 64.8671 46.7979 63.3588 46.7979C61.8506 46.7979 60.6265 48.0192 60.6265 49.5302V57.7273C60.6265 59.2383 61.8506 60.4596 63.3588 60.4596H68.8235C70.3318 60.4596 71.5559 59.2383 71.5559 57.7273C71.5559 56.2163 70.3318 54.9949 68.8235 54.9949Z" fill="#303D94"/>
</svg>
