<svg width="206" height="206" viewBox="0 0 206 206" fill="none" xmlns="http://www.w3.org/2000/svg">
<path d="M95.5318 79.9976C109.753 79.9976 121.282 68.4689 121.282 54.2476C121.282 40.0262 109.753 28.4976 95.5318 28.4976C81.3104 28.4976 69.7817 40.0262 69.7817 54.2476C69.7817 68.4689 81.3104 79.9976 95.5318 79.9976Z" fill="url(#paint0_linear_2211_1575)"/>
<path d="M101.883 147.462C101.883 140.799 103.434 134.228 106.414 128.269C109.394 122.31 113.72 117.126 119.05 113.128C119.395 112.843 119.659 112.474 119.818 112.056C119.976 111.638 120.023 111.186 119.954 110.744C119.885 110.302 119.701 109.887 119.423 109.537C119.144 109.187 118.779 108.917 118.363 108.751C108.832 105.161 98.5848 103.881 88.4625 105.015C78.3402 106.149 68.6309 109.666 60.1303 115.278C51.6297 120.889 44.5799 128.434 39.5586 137.297C34.5371 146.158 31.6873 156.084 31.2424 166.259C31.2421 166.973 31.5197 167.659 32.0164 168.172C32.513 168.685 33.1898 168.984 33.9033 169.006H103.686C104.125 168.998 104.556 168.878 104.936 168.657C105.317 168.435 105.633 168.12 105.857 167.742C106.081 167.363 106.204 166.933 106.215 166.494C106.225 166.053 106.123 165.618 105.918 165.229C103.317 159.664 101.941 153.605 101.883 147.462Z" fill="url(#paint1_linear_2211_1575)"/>
<path d="M144.8 117.422C138.859 117.422 133.05 119.184 128.11 122.485C123.169 125.785 119.319 130.478 117.045 135.967C114.771 141.457 114.176 147.497 115.335 153.324C116.495 159.152 119.355 164.505 123.557 168.706C127.759 172.908 133.111 175.769 138.939 176.928C144.766 178.087 150.807 177.492 156.296 175.219C161.785 172.945 166.478 169.094 169.778 164.154C173.079 159.213 174.842 153.405 174.842 147.464C174.842 139.496 171.676 131.855 166.043 126.221C160.409 120.587 152.768 117.422 144.8 117.422ZM162.396 143.172L144.457 161.111C143.871 161.725 143.165 162.211 142.381 162.535C141.597 162.86 140.755 163.018 139.907 162.999C139.062 163.004 138.223 162.839 137.442 162.514C136.661 162.19 135.952 161.713 135.358 161.111L127.204 152.957C126.067 151.736 125.448 150.123 125.477 148.455C125.506 146.787 126.183 145.196 127.362 144.016C128.541 142.837 130.133 142.162 131.8 142.132C133.468 142.102 135.082 142.721 136.302 143.859L139.907 147.464L153.297 134.074C153.887 133.441 154.598 132.934 155.387 132.582C156.177 132.23 157.029 132.041 157.894 132.026C158.758 132.01 159.616 132.17 160.418 132.493C161.22 132.817 161.948 133.299 162.559 133.91C163.171 134.522 163.652 135.249 163.976 136.051C164.3 136.853 164.459 137.711 164.444 138.576C164.428 139.44 164.239 140.292 163.888 141.082C163.536 141.872 163.028 142.582 162.396 143.172Z" fill="url(#paint2_linear_2211_1575)"/>
<defs>
<linearGradient id="paint0_linear_2211_1575" x1="95.5317" y1="28.4976" x2="95.5317" y2="79.9976" gradientUnits="userSpaceOnUse">
<stop stop-color="#62943B"/>
<stop offset="1" stop-color="#C0C71F"/>
</linearGradient>
<linearGradient id="paint1_linear_2211_1575" x1="75.6137" y1="104.614" x2="75.6137" y2="169.006" gradientUnits="userSpaceOnUse">
<stop stop-color="#62943B"/>
<stop offset="1" stop-color="#C0C71F"/>
</linearGradient>
<linearGradient id="paint2_linear_2211_1575" x1="144.8" y1="117.422" x2="144.8" y2="177.505" gradientUnits="userSpaceOnUse">
<stop stop-color="#62943B"/>
<stop offset="1" stop-color="#C0C71F"/>
</linearGradient>
</defs>
</svg>
